<svg xmlns="http://www.w3.org/2000/svg" viewBox="0 0 400 300" role="img" aria-label="Rôti préparé">
  <defs>
    <linearGradient id="fond" x1="0" y1="0" x2="1" y2="1">
      <stop offset="0" stop-color="#faf4ea"/>
      <stop offset="1" stop-color="#f0e3ce"/>
    </linearGradient>
    <pattern id="pois" width="22" height="22" patternUnits="userSpaceOnUse">
      <circle cx="3" cy="3" r="1.4" fill="#c41a14" opacity="0.10"/>
    </pattern>
  </defs>
  <rect width="400" height="300" fill="url(#fond)"/>
  <rect width="400" height="300" fill="url(#pois)"/>
  <rect x="14" y="14" width="372" height="272" rx="12" fill="none" stroke="#c41a14" stroke-width="1.4" stroke-dasharray="5 6" opacity="0.45"/>
  <circle cx="200" cy="128" r="58" fill="#ffffff" stroke="#c41a14" stroke-opacity="0.25"/>
  <g transform="translate(168 96)" fill="none" stroke="#c41a14" stroke-width="2.6" stroke-linecap="round" stroke-linejoin="round">
    <ellipse cx="32" cy="36" rx="16" ry="10"/><path d="M20 30c1-6 6-10 12-10s11 4 12 10"/><path d="M24 36h16M27 41h10" opacity="0.6"/><path d="M32 14v4M26 16l2 3M38 16l-2 3" opacity="0.65"/>
  </g>
  <text x="200" y="222" text-anchor="middle" font-family="Georgia, serif" font-size="21" font-weight="bold" fill="#5c2430">Rôti préparé</text>
  <text x="200" y="248" text-anchor="middle" font-family="sans-serif" font-size="11.5" letter-spacing="3" fill="#c41a14">FÊTES</text>
</svg>
